<?xml version="1.0" standalone="no"?>
<!DOCTYPE svg PUBLIC "-//W3C//DTD SVG 20010904//EN"
 "http://www.w3.org/TR/2001/REC-SVG-20010904/DTD/svg10.dtd">
<svg version="1.0" xmlns="http://www.w3.org/2000/svg"
 width="672.000000pt" height="672.000000pt" viewBox="0 0 672.000000 672.000000"
 preserveAspectRatio="xMidYMid meet">
<metadata>
Created by potrace 1.11, written by Peter Selinger 2001-2013
</metadata>
<g transform="translate(0.000000,672.000000) scale(0.100000,-0.100000)"
fill="#000000" stroke="none">
<path d="M0 3360 l0 -2560 2880 0 2880 0 0 2560 0 2560 -2880 0 -2880 0 0
-2560z m2515 -1040 c174 -25 286 -136 329 -327 27 -123 36 -114 -111 -111
l-128 3 -6 60 c-12 122 -58 167 -170 167 -73 0 -116 -23 -146 -78 -32 -58 -43
-147 -43 -354 0 -288 19 -366 100 -408 55 -27 120 -28 178 -2 49 22 69 58 80
148 l7 57 125 0 125 0 -3 -55 c-14 -230 -180 -380 -422 -380 -169 0 -300 71
-369 199 -59 111 -71 186 -71 440 0 254 10 322 60 421 61 120 164 198 290 219
76 12 95 12 175 1z m1088 -39 c81 -32 166 -113 201 -191 96 -214 24 -463 -160
-549 -68 -32 -119 -40 -251 -41 l-123 0 0 -220 0 -220 -130 0 -130 0 0 626 0
625 268 -3 c251 -3 270 -5 325 -27z m659 -453 c3 -434 5 -486 20 -514 43 -78
207 -85 262 -11 20 28 21 41 26 515 l5 487 128 3 128 3 -3 -488 c-4 -447 -5
-492 -23 -538 -34 -93 -92 -162 -165 -200 -46 -24 -149 -45 -222 -45 -232 0
-374 111 -407 320 -7 38 -11 248 -11 508 l0 442 130 0 129 0 3 -482z"/>
<path d="M3270 1906 l0 -196 103 0 c168 0 212 39 212 185 0 93 -20 143 -69
178 -26 19 -47 22 -138 25 l-108 4 0 -196z"/>
<path d="M6080 3360 l0 -2560 320 0 320 0 0 2560 0 2560 -320 0 -320 0 0
-2560z"/>
</g>
</svg>
