<?xml version="1.0" encoding="UTF-8" standalone="no"?>
<svg
xmlns:cc="http://creativecommons.org/ns#"
xmlns:dc="http://purl.org/dc/elements/1.1/"
xmlns:rdf="http://www.w3.org/1999/02/22-rdf-syntax-ns#"
xmlns:svg="http://www.w3.org/2000/svg"
xmlns="http://www.w3.org/2000/svg"
width="64"
height="64"
version="1.1" >
<metadata>
	<rdf:RDF>
		<cc:Work rdf:about="">
			<dc:format>image/svg+xml</dc:format>
			<dc:type rdf:resource="http://purl.org/dc/dcmitype/StillImage"/>
			<dc:title/>
		</cc:Work>
	</rdf:RDF>
</metadata>
<!-- Author : Xavier "Da Scritch" Mouton-Dubosc for CPU radio show -->
<style>
	#small {fill:#ffffff;}
</style>
<g id="logo">
	<rect
	style="fill:#5d594f;fill-opacity:1;fill-rule:evenodd;stroke:none"
	width="64" height="64"
	x="0" y="0" />
	<g id="small">
	<path
       d="m 35.723782,55.569698 c -0.07879,1.783207 -0.58009,3.13314 -1.503907,4.049805 -0.923837,0.916667 -2.227221,1.375 -3.910156,1.375 -1.768885,0 -3.12598,-0.580078 -4.071289,-1.740234 -0.938152,-1.167315 -1.407228,-2.828772 -1.407227,-4.984375 l 0,-2.631836 c -10e-7,-2.148427 0.486978,-3.802722 1.460938,-4.962891 0.973955,-1.167302 2.327469,-1.750961 4.060547,-1.750976 1.704419,1.5e-5 2.997061,0.476252 3.87793,1.42871 0.888009,0.952488 1.392891,2.320325 1.514648,4.103516 l -3.168945,0 c -0.02866,-1.102853 -0.20053,-1.861967 -0.515625,-2.277344 -0.307951,-0.422513 -0.877286,-0.633775 -1.708008,-0.633789 -0.845058,1.4e-5 -1.443039,0.297214 -1.793945,0.891602 -0.350916,0.587251 -0.537114,1.557628 -0.558594,2.911133 l 0,2.954101 c -4e-6,1.554042 0.17187,2.621098 0.515625,3.201172 0.350906,0.580081 0.948887,0.87012 1.793945,0.870117 0.830722,3e-6 1.403638,-0.200518 1.71875,-0.601562 0.315096,-0.4082 0.494132,-1.142249 0.537109,-2.202149 l 3.158204,0" />
    <path
       d="m 40.826321,55.279659 0,5.5 -3.158203,0 0,-15.640625 5.328125,0 c 1.546866,1.6e-5 2.778636,0.479833 3.695312,1.439453 0.923817,0.959649 1.385731,2.205742 1.385742,3.738282 -1.1e-5,1.532561 -0.454764,2.742846 -1.364258,3.630859 -0.909514,0.888027 -2.16993,1.332037 -3.78125,1.332031 l -2.105468,0 m 0,-2.631836 2.169922,0 c 0.601555,8e-6 1.067049,-0.196931 1.396484,-0.59082 0.329419,-0.393871 0.494132,-0.966787 0.494141,-1.71875 -9e-6,-0.780588 -0.168303,-1.400053 -0.504883,-1.858398 -0.336596,-0.465482 -0.787768,-0.70181 -1.353516,-0.708985 l -2.202148,0 0,4.876953" />
    <path
       d="m 60.344875,45.139034 0,10.828125 c -0.01433,1.625654 -0.461925,2.871747 -1.342773,3.738282 -0.880869,0.859375 -2.144865,1.289062 -3.791992,1.289062 -1.675786,0 -2.957686,-0.436849 -3.845703,-1.310547 -0.880861,-0.873696 -1.321291,-2.137692 -1.321289,-3.791992 l 0,-10.75293 3.179687,0 0,10.763672 c -4e-6,0.888025 0.143225,1.521813 0.429688,1.901367 0.286453,0.37956 0.805658,0.569339 1.557617,0.569336 0.751946,3e-6 1.26757,-0.186195 1.546875,-0.558593 0.279288,-0.379554 0.422517,-0.99902 0.429687,-1.858399 l 0,-10.817383 3.158203,0" />
	</g>
</g>
</svg>
