<?xml version="1.0" encoding="UTF-8" standalone="no"?>
<!-- Created with Inkscape (http://www.inkscape.org/) -->

<svg
   xmlns:osb="http://www.openswatchbook.org/uri/2009/osb"
   xmlns:dc="http://purl.org/dc/elements/1.1/"
   xmlns:cc="http://creativecommons.org/ns#"
   xmlns:rdf="http://www.w3.org/1999/02/22-rdf-syntax-ns#"
   xmlns:svg="http://www.w3.org/2000/svg"
   xmlns="http://www.w3.org/2000/svg"
   xmlns:sodipodi="http://sodipodi.sourceforge.net/DTD/sodipodi-0.dtd"
   xmlns:inkscape="http://www.inkscape.org/namespaces/inkscape"
   width="210mm"
   height="297mm"
   viewBox="0 0 210 297"
   version="1.1"
   id="svg8"
   inkscape:version="0.92.4 5da689c313, 2019-01-14"
   sodipodi:docname="fmr-radioactif.svg">
  <defs
     id="defs2">
    <linearGradient
       id="linearGradient5395"
       osb:paint="solid">
      <stop
         style="stop-color:#aa88ff;stop-opacity:1;"
         offset="0"
         id="stop5393" />
    </linearGradient>
  </defs>
  <sodipodi:namedview
     id="base"
     pagecolor="#ffffff"
     bordercolor="#666666"
     borderopacity="1.0"
     inkscape:pageopacity="0.0"
     inkscape:pageshadow="2"
     inkscape:zoom="8"
     inkscape:cx="444.09636"
     inkscape:cy="633.06201"
     inkscape:document-units="mm"
     inkscape:current-layer="layer1"
     showgrid="true"
     inkscape:window-width="1920"
     inkscape:window-height="1016"
     inkscape:window-x="1920"
     inkscape:window-y="27"
     inkscape:window-maximized="1"
     inkscape:snap-nodes="true"
     inkscape:object-nodes="false"
     inkscape:snap-midpoints="true"
     inkscape:snap-smooth-nodes="false"
     inkscape:snap-grids="true">
    <inkscape:grid
       type="xygrid"
       id="grid5418" />
  </sodipodi:namedview>
  <metadata
     id="metadata5">
    <rdf:RDF>
      <cc:Work
         rdf:about="">
        <dc:format>image/svg+xml</dc:format>
        <dc:type
           rdf:resource="http://purl.org/dc/dcmitype/StillImage" />
        <dc:title />
      </cc:Work>
    </rdf:RDF>
  </metadata>
  <g
     inkscape:label="Calque 1"
     inkscape:groupmode="layer"
     id="layer1">
    <path
       style="color:#000000;font-style:normal;font-variant:normal;font-weight:normal;font-stretch:normal;font-size:medium;line-height:normal;font-family:sans-serif;font-variant-ligatures:normal;font-variant-position:normal;font-variant-caps:normal;font-variant-numeric:normal;font-variant-alternates:normal;font-feature-settings:normal;text-indent:0;text-align:start;text-decoration:none;text-decoration-line:none;text-decoration-style:solid;text-decoration-color:#000000;letter-spacing:normal;word-spacing:normal;text-transform:none;writing-mode:lr-tb;direction:ltr;text-orientation:mixed;dominant-baseline:auto;baseline-shift:baseline;text-anchor:start;white-space:normal;shape-padding:0;clip-rule:nonzero;display:inline;overflow:visible;visibility:visible;opacity:1;isolation:auto;mix-blend-mode:normal;color-interpolation:sRGB;color-interpolation-filters:linearRGB;solid-color:#000000;solid-opacity:1;vector-effect:none;fill-opacity:1;fill-rule:nonzero;stroke:none;stroke-width:0.18725736;stroke-linecap:butt;stroke-linejoin:miter;stroke-miterlimit:4;stroke-dasharray:none;stroke-dashoffset:0;stroke-opacity:1;color-rendering:auto;image-rendering:auto;shape-rendering:auto;text-rendering:auto;enable-background:accumulate"
       d="M 100.41406,51.613281 59.150391,92.876953 c -11.329119,11.329037 -21.62161,21.640937 -29.080079,29.128907 -3.729234,3.74399 -6.751362,6.78266 -8.83789,8.88867 -1.043264,1.05301 -1.852055,1.87272 -2.400391,2.43164 -0.274168,0.27947 -0.482892,0.49304 -0.623047,0.63867 -0.07008,0.0728 -0.122436,0.12937 -0.158203,0.16797 -0.01788,0.0193 -0.0329,0.0332 -0.04297,0.0449 -0.005,0.006 -0.0072,0.0115 -0.01172,0.0176 -0.0023,0.003 -0.0058,0.005 -0.0098,0.0117 -0.0039,0.007 -0.006,0.0837 -0.0059,0.084 10e-5,2.5e-4 0.01347,0.0227 0.01563,0.0254 0.0022,0.003 0.0041,0.004 0.0059,0.006 0.0035,0.004 0.0067,0.008 0.01172,0.0137 0.01,0.0106 0.02461,0.0259 0.04297,0.0449 0.03672,0.038 0.09093,0.0934 0.162109,0.16602 0.142363,0.14514 0.353106,0.35777 0.628906,0.63671 0.5516,0.55788 1.362539,1.37652 2.40625,2.42774 2.087423,2.10244 5.102837,5.13533 8.822266,8.87305 7.438858,7.47542 17.693166,17.77005 28.966797,29.08007 11.273659,11.31006 21.544778,21.59247 29.011719,29.04688 3.73347,3.7272 6.767048,6.7473 8.873046,8.83594 1.053,1.04431 1.87373,1.85575 2.435547,2.40625 0.280909,0.27524 0.496642,0.48538 0.644529,0.62695 0.0739,0.0708 0.1299,0.12548 0.16992,0.16211 0.02,0.0183 0.0363,0.0304 0.0488,0.041 0.006,0.005 0.0111,0.011 0.0176,0.0156 0.003,0.002 0.008,0.004 0.0137,0.008 0.006,0.003 0.0484,0.0137 0.0488,0.0137 10e-4,0 0.0509,-0.0144 0.0586,-0.0195 0.008,-0.005 0.0141,-0.0117 0.0215,-0.0176 0.0147,-0.0118 0.032,-0.0266 0.0547,-0.0469 0.0454,-0.0406 0.11083,-0.0998 0.19336,-0.17774 0.16505,-0.15593 0.40377,-0.38672 0.71289,-0.6875 0.61824,-0.60155 1.51413,-1.48292 2.65039,-2.60546 2.27251,-2.2451 5.50322,-5.45284 9.36914,-9.30274 7.73183,-7.69979 18.00969,-17.96858 28.27929,-28.24805 10.26961,-10.27946 20.53025,-20.56933 28.22266,-28.30859 3.8462,-3.86963 7.05003,-7.10226 9.29297,-9.37695 1.12147,-1.13735 2.00253,-2.03547 2.60351,-2.6543 0.3005,-0.30942 0.53172,-0.54963 0.6875,-0.71484 0.0779,-0.0826 0.13719,-0.14591 0.17774,-0.19141 0.0203,-0.0227 0.0351,-0.04 0.0469,-0.0547 0.006,-0.007 0.0105,-0.0138 0.0156,-0.0215 0.005,-0.008 0.0195,-0.0593 0.0195,-0.0606 0,-6e-4 -0.006,-0.0361 -0.01,-0.043 -0.003,-0.007 -0.005,-0.01 -0.008,-0.0137 -0.005,-0.008 -0.0101,-0.0145 -0.0156,-0.0215 -0.011,-0.0139 -0.0245,-0.0299 -0.043,-0.0508 -0.0369,-0.0418 -0.0913,-0.10022 -0.16211,-0.17579 -0.14166,-0.15112 -0.35182,-0.37002 -0.62695,-0.65429 -0.55027,-0.56854 -1.36058,-1.39846 -2.4043,-2.45899 -2.08745,-2.12105 -5.10506,-5.16945 -8.83008,-8.91992 -7.45003,-7.50094 -17.72591,-17.80803 -29.0293,-29.111327 z m 0,0.265625 41.03711,41.03711 c 11.30326,11.303174 21.57754,21.610614 29.02735,29.111324 3.7249,3.75036 6.74495,6.79926 8.83203,8.91993 1.04353,1.06033 1.85278,1.88727 2.40234,2.45507 0.27478,0.28391 0.48468,0.50265 0.625,0.65235 0.0702,0.0748 0.12373,0.13278 0.1582,0.17187 0.002,0.002 0.002,0.004 0.004,0.006 -0.004,0.005 -0.005,0.006 -0.01,0.0117 -0.0383,0.043 -0.0966,0.1075 -0.17382,0.18945 -0.15454,0.1639 -0.38539,0.40186 -0.68555,0.71094 -0.60033,0.61816 -1.48026,1.51712 -2.60156,2.6543 -2.2426,2.27435 -5.44686,5.50546 -9.29297,9.375 -7.69222,7.73907 -17.95119,18.02921 -28.22071,28.30859 -10.26951,10.27938 -20.5496,20.54844 -28.28124,28.24805 -3.86583,3.8498 -7.09502,7.05798 -9.36719,9.30273 -1.13609,1.12238 -2.03283,2.00261 -2.65039,2.60352 -0.30879,0.30045 -0.5472,0.53086 -0.71094,0.68555 -0.0819,0.0773 -0.14654,0.13551 -0.18945,0.17382 -0.005,0.004 -0.006,0.006 -0.01,0.01 -9e-4,-8.2e-4 -0.001,-0.001 -0.002,-0.002 -0.038,-0.0348 -0.0945,-0.0879 -0.16797,-0.15821 -0.146855,-0.14058 -0.361935,-0.35001 -0.642579,-0.625 -0.561289,-0.54998 -1.382686,-1.36207 -2.435547,-2.40625 -2.105723,-2.08836 -5.137706,-5.10881 -8.871094,-8.83593 C 80.720723,197.02427 70.449352,186.74356 59.175781,175.43359 47.90218,164.1236 37.647786,153.82888 30.208984,146.35352 c -3.719401,-3.73769 -6.734936,-6.77071 -8.822265,-8.87305 -1.043665,-1.05117 -1.854829,-1.87004 -2.40625,-2.42774 -0.275711,-0.27884 -0.48689,-0.49192 -0.628907,-0.63671 -0.07016,-0.0715 -0.122155,-0.12675 -0.158203,-0.16407 0.03421,-0.0368 0.08371,-0.087 0.150391,-0.15625 0.139329,-0.14477 0.347138,-0.35942 0.621094,-0.63867 0.547911,-0.55849 1.35919,-1.37875 2.402344,-2.43164 2.086306,-2.10578 5.106769,-5.1428 8.835937,-8.88672 7.458337,-7.48784 17.751031,-17.79994 29.080078,-29.128904 z"
       id="path4590"
       inkscape:connector-curvature="0" />
    <path
       style="color:#000000;font-style:normal;font-variant:normal;font-weight:normal;font-stretch:normal;font-size:medium;line-height:normal;font-family:sans-serif;font-variant-ligatures:normal;font-variant-position:normal;font-variant-caps:normal;font-variant-numeric:normal;font-variant-alternates:normal;font-feature-settings:normal;text-indent:0;text-align:start;text-decoration:none;text-decoration-line:none;text-decoration-style:solid;text-decoration-color:#000000;letter-spacing:normal;word-spacing:normal;text-transform:none;writing-mode:lr-tb;direction:ltr;text-orientation:mixed;dominant-baseline:auto;baseline-shift:baseline;text-anchor:start;white-space:normal;shape-padding:0;clip-rule:nonzero;display:inline;overflow:visible;visibility:visible;opacity:1;isolation:auto;mix-blend-mode:normal;color-interpolation:sRGB;color-interpolation-filters:linearRGB;solid-color:#000000;solid-opacity:1;vector-effect:none;fill-opacity:1;fill-rule:nonzero;stroke:none;stroke-width:0.18725736;stroke-linecap:butt;stroke-linejoin:miter;stroke-miterlimit:4;stroke-dasharray:none;stroke-dashoffset:0;stroke-opacity:1;color-rendering:auto;image-rendering:auto;shape-rendering:auto;text-rendering:auto;enable-background:accumulate"
       d="m 100.79102,70.894531 c -2.85158,-0.114379 -4.751829,0.216228 -6.703129,1.171875 -0.56475,0.276586 -0.993587,0.451852 -1.285157,0.658203 -0.145785,0.103176 -0.257747,0.217889 -0.326172,0.357422 -0.06842,0.139534 -0.08953,0.30147 -0.06445,0.488281 0.05015,0.373623 0.271611,0.857858 0.673829,1.59375 0.402217,0.735893 0.987378,1.719276 1.773437,3.072266 l 2.771484,4.769531 1.75,-0.103515 c 1.214548,-0.07168 1.911508,-0.02168 2.501948,0.171875 0.23288,0.07634 0.46542,0.149284 0.6543,0.203125 0.18888,0.05384 0.32216,0.08813 0.40039,0.0957 9.5e-4,9.2e-5 0.0191,0.0015 0.0273,0 0.008,-0.0015 0.0156,-0.0035 0.0215,-0.0059 0.0118,-0.0046 0.0201,-0.01061 0.0273,-0.01563 0.0145,-0.01002 0.0261,-0.01984 0.0371,-0.03125 0.022,-0.02282 0.0437,-0.05168 0.0703,-0.08789 0.0532,-0.07242 0.12149,-0.17383 0.20313,-0.304688 0.16327,-0.261714 0.38013,-0.634891 0.63476,-1.083984 0.50926,-0.898186 1.16518,-2.101365 1.8086,-3.3125 0.64342,-1.211135 1.27498,-2.431016 1.74023,-3.367188 0.23263,-0.468085 0.42277,-0.864074 0.55274,-1.154296 0.065,-0.145112 0.11572,-0.264388 0.14843,-0.353516 0.0164,-0.04456 0.0292,-0.08117 0.0371,-0.113281 0.008,-0.03211 0.0224,-0.05109 0,-0.109375 -0.0284,-0.07399 -0.0827,-0.137458 -0.1582,-0.208985 -0.0755,-0.07153 -0.17319,-0.148604 -0.28906,-0.230468 -0.23175,-0.16373 -0.53742,-0.347113 -0.88477,-0.533203 -0.69469,-0.372181 -1.55344,-0.753452 -2.29492,-0.994141 -1.13672,-0.368984 -2.01521,-0.499545 -3.82812,-0.572266 z"
       inkscape:connector-curvature="0"
       id="path5381" />
    <path
       style="color:#000000;font-style:normal;font-variant:normal;font-weight:normal;font-stretch:normal;font-size:medium;line-height:normal;font-family:sans-serif;font-variant-ligatures:normal;font-variant-position:normal;font-variant-caps:normal;font-variant-numeric:normal;font-variant-alternates:normal;font-feature-settings:normal;text-indent:0;text-align:start;text-decoration:none;text-decoration-line:none;text-decoration-style:solid;text-decoration-color:#000000;letter-spacing:normal;word-spacing:normal;text-transform:none;writing-mode:lr-tb;direction:ltr;text-orientation:mixed;dominant-baseline:auto;baseline-shift:baseline;text-anchor:start;white-space:normal;shape-padding:0;clip-rule:nonzero;display:inline;overflow:visible;visibility:visible;opacity:1;isolation:auto;mix-blend-mode:normal;color-interpolation:sRGB;color-interpolation-filters:linearRGB;solid-color:#000000;solid-opacity:1;vector-effect:none;fill-opacity:1;fill-rule:nonzero;stroke:none;stroke-width:0.18725736;stroke-linecap:butt;stroke-linejoin:miter;stroke-miterlimit:4;stroke-dasharray:none;stroke-dashoffset:0;stroke-opacity:1;color-rendering:auto;image-rendering:auto;shape-rendering:auto;text-rendering:auto;enable-background:accumulate"
       d="m 100.44904,84.703125 c -2.019949,0 -3.633057,1.512569 -3.812501,3.568359 -0.08456,0.968726 -0.01917,1.283535 0.453125,2.179688 0.444664,0.843722 0.757839,1.158855 1.601562,1.603516 0.896154,0.472329 1.212917,0.537676 2.181644,0.453124 2.11681,-0.184775 3.5664,-1.780127 3.5664,-3.919921 0,-2.259363 -1.67183,-3.884766 -3.99023,-3.884766 z"
       inkscape:connector-curvature="0"
       id="path5377" />
    <path
       style="color:#000000;font-style:normal;font-variant:normal;font-weight:normal;font-stretch:normal;font-size:medium;line-height:normal;font-family:sans-serif;font-variant-ligatures:normal;font-variant-position:normal;font-variant-caps:normal;font-variant-numeric:normal;font-variant-alternates:normal;font-feature-settings:normal;text-indent:0;text-align:start;text-decoration:none;text-decoration-line:none;text-decoration-style:solid;text-decoration-color:#000000;letter-spacing:normal;word-spacing:normal;text-transform:none;writing-mode:lr-tb;direction:ltr;text-orientation:mixed;dominant-baseline:auto;baseline-shift:baseline;text-anchor:start;white-space:normal;shape-padding:0;clip-rule:nonzero;display:inline;overflow:visible;visibility:visible;opacity:1;isolation:auto;mix-blend-mode:normal;color-interpolation:sRGB;color-interpolation-filters:linearRGB;solid-color:#000000;solid-opacity:1;vector-effect:none;fill-opacity:1;fill-rule:nonzero;stroke:none;stroke-width:0.18725736;stroke-linecap:butt;stroke-linejoin:miter;stroke-miterlimit:4;stroke-dasharray:none;stroke-dashoffset:0;stroke-opacity:1;color-rendering:auto;image-rendering:auto;shape-rendering:auto;text-rendering:auto;enable-background:accumulate"
       d="m 115.90607,88.900391 c -0.9162,-0.0093 -2.28252,0.01101 -4.16016,0.06055 l -5.47851,0.144531 -0.24805,1.21875 c -0.24598,1.207438 -0.71815,2.218568 -1.45703,3.126953 l -0.50391,0.621094 3.04493,4.685546 c 0.82728,1.273735 1.60521,2.431165 2.19336,3.271485 0.29407,0.42016 0.54054,0.76097 0.72265,0.99804 0.0911,0.11854 0.1644,0.21024 0.22266,0.27539 0.0291,0.0326 0.055,0.0598 0.0781,0.0801 0.0116,0.0101 0.0214,0.019 0.0352,0.0273 0.0137,0.008 0.0307,0.0195 0.0664,0.0195 0.0919,0 0.1883,-0.0355 0.30859,-0.0918 0.12028,-0.0563 0.25981,-0.1358 0.41601,-0.23437 0.31241,-0.19715 0.6872,-0.4713 1.07618,-0.7793 0.77795,-0.616 1.60942,-1.3697 2.08398,-1.94727 1.08209,-1.316942 2.43453,-3.924416 2.97266,-5.72265 0.199,-0.66498 0.32133,-1.956108 0.35547,-3.136719 0.0171,-0.590305 0.01,-1.150349 -0.0215,-1.58789 -0.0156,-0.218771 -0.0366,-0.40689 -0.0664,-0.554688 -0.0298,-0.147798 -0.0561,-0.253094 -0.13086,-0.328125 -0.051,-0.0512 -0.10042,-0.05748 -0.17383,-0.07227 -0.0734,-0.01479 -0.16976,-0.02715 -0.29102,-0.03711 -0.24252,-0.01993 -0.58682,-0.03245 -1.04492,-0.03711 z"
       inkscape:connector-curvature="0"
       id="path5373" />
    <path
       style="color:#000000;font-style:normal;font-variant:normal;font-weight:normal;font-stretch:normal;font-size:medium;line-height:normal;font-family:sans-serif;font-variant-ligatures:normal;font-variant-position:normal;font-variant-caps:normal;font-variant-numeric:normal;font-variant-alternates:normal;font-feature-settings:normal;text-indent:0;text-align:start;text-decoration:none;text-decoration-line:none;text-decoration-style:solid;text-decoration-color:#000000;letter-spacing:normal;word-spacing:normal;text-transform:none;writing-mode:lr-tb;direction:ltr;text-orientation:mixed;dominant-baseline:auto;baseline-shift:baseline;text-anchor:start;white-space:normal;shape-padding:0;clip-rule:nonzero;display:inline;overflow:visible;visibility:visible;opacity:1;isolation:auto;mix-blend-mode:normal;color-interpolation:sRGB;color-interpolation-filters:linearRGB;solid-color:#000000;solid-opacity:1;vector-effect:none;fill-opacity:1;fill-rule:nonzero;stroke:none;stroke-width:0.18725736;stroke-linecap:butt;stroke-linejoin:miter;stroke-miterlimit:4;stroke-dasharray:none;stroke-dashoffset:0;stroke-opacity:1;color-rendering:auto;image-rendering:auto;shape-rendering:auto;text-rendering:auto;enable-background:accumulate"
       d="m 85.585758,89.009766 c -0.905382,0 -1.365877,-4.62e-4 -1.648438,0.06641 -0.141281,0.03343 -0.243334,0.09045 -0.314453,0.173828 -0.07112,0.08338 -0.10917,0.182089 -0.154297,0.300781 -0.159475,0.419451 -0.206055,1.139354 -0.169922,1.978516 0.03613,0.839162 0.159604,1.792462 0.363281,2.652344 0.83199,3.512485 3.143733,7.033205 5.728516,8.705075 0.305317,0.19748 0.598504,0.37704 0.826172,0.50781 0.113834,0.0654 0.211518,0.11855 0.287109,0.15625 0.0378,0.0189 0.06994,0.0338 0.09766,0.0449 0.02772,0.0111 0.0436,0.0215 0.08594,0.0215 4.34e-4,0 0.01904,-0.002 0.01953,-0.002 4.96e-4,-9e-5 0.0095,-0.002 0.01367,-0.004 0.0083,-0.003 0.01445,-0.007 0.01953,-0.01 0.01016,-0.006 0.01699,-0.0121 0.02344,-0.0176 0.0129,-0.0109 0.02417,-0.0209 0.03711,-0.0352 0.02588,-0.0285 0.05663,-0.0683 0.0957,-0.11914 0.07814,-0.10161 0.186664,-0.25071 0.324219,-0.44727 0.27511,-0.39312 0.668556,-0.97582 1.173828,-1.73633 1.010544,-1.521009 2.467614,-3.753865 4.306641,-6.605461 0.06217,-0.0964 0.108554,-0.179351 0.136719,-0.265625 0.02816,-0.08627 0.03266,-0.177363 0.0078,-0.269531 -0.04971,-0.184337 -0.192314,-0.371433 -0.453125,-0.697266 -0.706449,-0.88257 -1.252812,-2.123221 -1.412109,-3.210937 l -0.136719,-0.939454 -3.742188,-0.125 C 89.084908,89.064836 86.605044,89.00932 85.585748,89.00932 Z"
       inkscape:connector-curvature="0"
       id="path5371" />
    <path
       style="color:#000000;font-style:normal;font-variant:normal;font-weight:normal;font-stretch:normal;font-size:medium;line-height:normal;font-family:sans-serif;font-variant-ligatures:normal;font-variant-position:normal;font-variant-caps:normal;font-variant-numeric:normal;font-variant-alternates:normal;font-feature-settings:normal;text-indent:0;text-align:start;text-decoration:none;text-decoration-line:none;text-decoration-style:solid;text-decoration-color:#000000;letter-spacing:normal;word-spacing:normal;text-transform:none;writing-mode:lr-tb;direction:ltr;text-orientation:mixed;dominant-baseline:auto;baseline-shift:baseline;text-anchor:start;white-space:normal;shape-padding:0;clip-rule:nonzero;display:inline;overflow:visible;visibility:visible;opacity:1;isolation:auto;mix-blend-mode:normal;color-interpolation:sRGB;color-interpolation-filters:linearRGB;solid-color:#000000;solid-opacity:1;vector-effect:none;fill-opacity:1;fill-rule:nonzero;stroke:none;stroke-width:0.18725736;stroke-linecap:butt;stroke-linejoin:miter;stroke-miterlimit:4;stroke-dasharray:none;stroke-dashoffset:0;stroke-opacity:1;color-rendering:auto;image-rendering:auto;shape-rendering:auto;text-rendering:auto;enable-background:accumulate"
       d="m 137.87091,122.71876 c -0.65419,-0.0177 -1.33418,0.0705 -1.83398,0.2793 -0.50771,0.21213 -0.80881,0.54238 -1.12109,1.21875 -0.18223,0.39471 -0.2889,0.71113 -0.34766,1.18945 -0.0588,0.47831 -0.0704,1.11803 -0.0684,2.17968 0.002,1.07681 0.0141,1.71071 0.0742,2.16992 0.0601,0.45922 0.1703,0.74367 0.35742,1.09766 0.22672,0.42889 0.61026,0.86416 0.92188,1.0625 v 0.0273 l 0.0469,0.0273 c 0.39674,0.2229 0.97353,0.28708 2.0332,0.25 0.69427,-0.0243 1.07265,-0.0443 1.35743,-0.13672 0.28477,-0.0924 0.45848,-0.26019 0.71289,-0.54492 0.40013,-0.44783 0.65423,-0.93684 0.79297,-1.63086 0.13873,-0.69401 0.16463,-1.59455 0.11914,-2.88867 -0.0446,-1.2677 -0.12512,-2.08416 -0.32813,-2.67187 -0.20301,-0.58772 -0.53678,-0.94017 -1.04492,-1.25 -0.39322,-0.23978 -1.01768,-0.36125 -1.67188,-0.37891 z"
       inkscape:connector-curvature="0"
       id="path5365" />
    <path
       style="color:#000000;font-style:normal;font-variant:normal;font-weight:normal;font-stretch:normal;font-size:medium;line-height:normal;font-family:sans-serif;font-variant-ligatures:normal;font-variant-position:normal;font-variant-caps:normal;font-variant-numeric:normal;font-variant-alternates:normal;font-feature-settings:normal;text-indent:0;text-align:start;text-decoration:none;text-decoration-line:none;text-decoration-style:solid;text-decoration-color:#000000;letter-spacing:normal;word-spacing:normal;text-transform:none;writing-mode:lr-tb;direction:ltr;text-orientation:mixed;dominant-baseline:auto;baseline-shift:baseline;text-anchor:start;white-space:normal;shape-padding:0;clip-rule:nonzero;display:inline;overflow:visible;visibility:visible;opacity:1;isolation:auto;mix-blend-mode:normal;color-interpolation:sRGB;color-interpolation-filters:linearRGB;solid-color:#000000;solid-opacity:1;vector-effect:none;fill-opacity:1;fill-rule:nonzero;stroke:none;stroke-width:0.18725736;stroke-linecap:butt;stroke-linejoin:miter;stroke-miterlimit:4;stroke-dasharray:none;stroke-dashoffset:0;stroke-opacity:1;color-rendering:auto;image-rendering:auto;shape-rendering:auto;text-rendering:auto;enable-background:accumulate"
       d="m 81.68732,122.90431 -1.083984,4.49023 c -0.293383,1.21598 -0.548043,2.34093 -0.722657,3.17382 -0.08731,0.41644 -0.153283,0.75916 -0.195312,1.00587 -0.0098,0.0576 -0.01447,0.0918 -0.02148,0.13866 -0.02593,0.14194 -0.02093,0.25194 -0.0097,0.33976 0.02456,0.0641 0.113844,0.0767 0.171875,0.11329 0.04917,0.0172 0.101414,0.0309 0.164062,0.043 0.15086,0.0291 0.338256,0.0468 0.53711,0.0527 0.397707,0.0119 0.830243,-0.0171 1.085937,-0.11524 0.117028,-0.0449 0.201918,-0.14672 0.261719,-0.27148 0.0598,-0.12477 0.09375,-0.27619 0.09375,-0.4336 0,-0.34655 0.07134,-0.54249 0.25,-0.66992 0.178665,-0.12742 0.495647,-0.18945 0.994141,-0.18945 0.471235,0 0.7202,0.0331 0.865234,0.14844 0.145034,0.11536 0.225749,0.34242 0.316406,0.78906 0.02771,0.1365 0.0534,0.24508 0.09375,0.33788 0.04035,0.0928 0.100619,0.17197 0.185547,0.22462 0.169856,0.10531 0.408567,0.12119 0.833984,0.14844 0.255115,0.0163 0.505916,0.0121 0.708985,-0.01 0.101534,-0.0109 0.189663,-0.0251 0.263672,-0.0449 0.07401,-0.0198 0.132632,-0.0389 0.18164,-0.0879 0.03357,-0.0336 0.03635,-0.0618 0.04102,-0.0898 0.0047,-0.028 0.0061,-0.0587 0.0059,-0.0937 -4.64e-4,-0.0702 -0.0074,-0.16019 -0.02148,-0.27343 -0.02817,-0.22651 -0.08169,-0.5431 -0.160156,-0.94141 -0.15694,-0.79662 -0.411694,-1.91997 -0.746094,-3.28906 l -1.097656,-4.49609 h -1.498047 z"
       inkscape:connector-curvature="0"
       id="path5363"
       sodipodi:nodetypes="cccccccccccscsccsccccccccccccc" />
    <path
       style="color:#000000;font-style:normal;font-variant:normal;font-weight:normal;font-stretch:normal;font-size:medium;line-height:normal;font-family:sans-serif;font-variant-ligatures:normal;font-variant-position:normal;font-variant-caps:normal;font-variant-numeric:normal;font-variant-alternates:normal;font-feature-settings:normal;text-indent:0;text-align:start;text-decoration:none;text-decoration-line:none;text-decoration-style:solid;text-decoration-color:#000000;letter-spacing:normal;word-spacing:normal;text-transform:none;writing-mode:lr-tb;direction:ltr;text-orientation:mixed;dominant-baseline:auto;baseline-shift:baseline;text-anchor:start;white-space:normal;shape-padding:0;clip-rule:nonzero;display:inline;overflow:visible;visibility:visible;opacity:1;isolation:auto;mix-blend-mode:normal;color-interpolation:sRGB;color-interpolation-filters:linearRGB;solid-color:#000000;solid-opacity:1;vector-effect:none;fill-opacity:1;fill-rule:nonzero;stroke:none;stroke-width:0.18725736;stroke-linecap:butt;stroke-linejoin:miter;stroke-miterlimit:4;stroke-dasharray:none;stroke-dashoffset:0;stroke-opacity:1;color-rendering:auto;image-rendering:auto;shape-rendering:auto;text-rendering:auto;enable-background:accumulate"
       d="m 62.986148,122.94541 -2.457031,0.0547 c -0.08492,3.0977 -0.05575,6.16429 -0.01028,9.17079 0.851076,-0.008 1.606377,-10e-4 2.381145,-0.003 0.0246,-1.36796 0.03765,-2.5876 0.04861,-3.73645 0.485952,-0.0132 0.627434,-0.0341 0.973161,0.13874 0.175246,0.11483 0.262792,0.20818 0.335937,0.44922 0.176436,0.86145 0.169242,1.54025 0.285157,2.41602 0.02075,0.15522 0.04089,0.28719 0.06055,0.38867 0.0098,0.0507 0.01962,0.0934 0.0293,0.1289 0.0097,0.0355 0.01635,0.0614 0.03516,0.0918 0.04108,0.0665 0.09681,0.0835 0.166015,0.10742 0.06921,0.0239 0.154382,0.0439 0.253907,0.0605 0.199048,0.0333 0.454478,0.0547 0.720703,0.0547 h 1.048828 l -0.09961,-1.88867 c -0.04298,-0.82172 -0.0743,-1.28162 -0.162109,-1.61329 -0.08781,-0.33166 -0.238442,-0.52854 -0.482422,-0.7832 l -0.458984,-0.47851 0.417969,-0.38672 c 0.498139,-0.46166 0.730003,-1.17585 0.714843,-1.87891 -0.01516,-0.70306 -0.27711,-1.40218 -0.794921,-1.83789 -0.282306,-0.23756 -0.47075,-0.37589 -0.863282,-0.43359 -0.392532,-0.0577 -0.98805,-0.047 -2.142578,-0.0215 z"
       inkscape:connector-curvature="0"
       id="path5357"
       sodipodi:nodetypes="cccccccccccccsccccccscscc" />
    <path
       style="color:#000000;font-style:normal;font-variant:normal;font-weight:normal;font-stretch:normal;font-size:medium;line-height:normal;font-family:sans-serif;font-variant-ligatures:normal;font-variant-position:normal;font-variant-caps:normal;font-variant-numeric:normal;font-variant-alternates:normal;font-feature-settings:normal;text-indent:0;text-align:start;text-decoration:none;text-decoration-line:none;text-decoration-style:solid;text-decoration-color:#000000;letter-spacing:normal;word-spacing:normal;text-transform:none;writing-mode:lr-tb;direction:ltr;text-orientation:mixed;dominant-baseline:auto;baseline-shift:baseline;text-anchor:start;white-space:normal;shape-padding:0;clip-rule:nonzero;display:inline;overflow:visible;visibility:visible;opacity:1;isolation:auto;mix-blend-mode:normal;color-interpolation:sRGB;color-interpolation-filters:linearRGB;solid-color:#000000;solid-opacity:1;vector-effect:none;fill-opacity:1;fill-rule:nonzero;stroke:none;stroke-width:0.18725736;stroke-linecap:butt;stroke-linejoin:miter;stroke-miterlimit:4;stroke-dasharray:none;stroke-dashoffset:0;stroke-opacity:1;color-rendering:auto;image-rendering:auto;shape-rendering:auto;text-rendering:auto;enable-background:accumulate"
       d="m 99.757632,123.09181 c 2.285268,-0.0184 3.335188,-0.27927 4.718748,0.27343 0.50498,0.21185 0.74616,0.5655 0.99414,1.21485 0.24837,0.65033 0.29773,1.28314 0.24805,3.21094 -0.0487,1.88838 -0.17435,2.92322 -0.66016,3.48436 -0.2429,0.28058 -0.57934,0.45587 -1.0664,0.57031 -1.37509,0.25651 -2.25507,0.19616 -4.276701,0.17277 0.0071,-3.07832 0.04171,-6.36291 0.04232,-8.92666 z"
       inkscape:connector-curvature="0"
       id="path5351"
       sodipodi:nodetypes="cccccccc" />
    <path
       style="color:#000000;font-style:normal;font-variant:normal;font-weight:normal;font-stretch:normal;font-size:medium;line-height:normal;font-family:sans-serif;font-variant-ligatures:normal;font-variant-position:normal;font-variant-caps:normal;font-variant-numeric:normal;font-variant-alternates:normal;font-feature-settings:normal;text-indent:0;text-align:start;text-decoration:none;text-decoration-line:none;text-decoration-style:solid;text-decoration-color:#000000;letter-spacing:normal;word-spacing:normal;text-transform:none;writing-mode:lr-tb;direction:ltr;text-orientation:mixed;dominant-baseline:auto;baseline-shift:baseline;text-anchor:start;white-space:normal;shape-padding:0;clip-rule:nonzero;display:inline;overflow:visible;visibility:visible;opacity:1;isolation:auto;mix-blend-mode:normal;color-interpolation:sRGB;color-interpolation-filters:linearRGB;solid-color:#000000;solid-opacity:1;vector-effect:none;fill-opacity:1;fill-rule:nonzero;stroke:none;stroke-width:0.18725736;stroke-linecap:butt;stroke-linejoin:miter;stroke-miterlimit:4;stroke-dasharray:none;stroke-dashoffset:0;stroke-opacity:1;color-rendering:auto;image-rendering:auto;shape-rendering:auto;text-rendering:auto;enable-background:accumulate"
       d="m 119.31565,123.18138 c 0.62435,0 1.2487,0 1.87305,0 0.007,2.96037 -0.006,5.9207 -0.0165,8.88104 -0.5065,9.8e-4 -1.1609,-0.002 -1.87808,-0.0122 -0.004,-3.07927 -0.002,-5.75623 0.0216,-8.86884 z"
       inkscape:connector-curvature="0"
       id="path5347"
       sodipodi:nodetypes="ccccc" />
    <path
       style="color:#000000;font-style:normal;font-variant:normal;font-weight:normal;font-stretch:normal;font-size:medium;line-height:normal;font-family:sans-serif;font-variant-ligatures:normal;font-variant-position:normal;font-variant-caps:normal;font-variant-numeric:normal;font-variant-alternates:normal;font-feature-settings:normal;text-indent:0;text-align:start;text-decoration:none;text-decoration-line:none;text-decoration-style:solid;text-decoration-color:#000000;letter-spacing:normal;word-spacing:normal;text-transform:none;writing-mode:lr-tb;direction:ltr;text-orientation:mixed;dominant-baseline:auto;baseline-shift:baseline;text-anchor:start;white-space:normal;shape-padding:0;clip-rule:nonzero;display:inline;overflow:visible;visibility:visible;opacity:1;isolation:auto;mix-blend-mode:normal;color-interpolation:sRGB;color-interpolation-filters:linearRGB;solid-color:#000000;solid-opacity:1;vector-effect:none;fill:#ffffff;fill-opacity:1;fill-rule:nonzero;stroke:none;stroke-width:0.18725736;stroke-linecap:butt;stroke-linejoin:miter;stroke-miterlimit:4;stroke-dasharray:none;stroke-dashoffset:0;stroke-opacity:1;color-rendering:auto;image-rendering:auto;shape-rendering:auto;text-rendering:auto;enable-background:accumulate"
       d="m 137.90218,124.25973 c 0.25215,0.0576 0.47876,0.25761 0.57227,0.59179 0.0556,0.19887 0.0998,0.63205 0.12305,1.16016 0.0232,0.52811 0.0283,1.15737 0.0176,1.77344 -0.0107,0.61606 -0.0375,1.21851 -0.0781,1.69531 -0.0203,0.2384 -0.0437,0.44601 -0.0703,0.60547 -0.0266,0.15945 -0.0612,0.2755 -0.0801,0.30859 -0.14053,0.24601 -0.37096,0.36439 -0.61133,0.36524 -0.24037,8.4e-4 -0.49157,-0.11813 -0.66601,-0.36719 -0.20125,-0.28733 -0.27344,-0.91061 -0.27344,-2.92188 0,-1.10011 0.0127,-1.7541 0.0605,-2.16992 0.0478,-0.41582 0.12365,-0.58339 0.26172,-0.7539 0.21255,-0.26248 0.492,-0.34471 0.74414,-0.28711 z"
       inkscape:connector-curvature="0"
       id="path5343" />
    <path
       style="color:#000000;font-style:normal;font-variant:normal;font-weight:normal;font-stretch:normal;font-size:medium;line-height:normal;font-family:sans-serif;font-variant-ligatures:normal;font-variant-position:normal;font-variant-caps:normal;font-variant-numeric:normal;font-variant-alternates:normal;font-feature-settings:normal;text-indent:0;text-align:start;text-decoration:none;text-decoration-line:none;text-decoration-style:solid;text-decoration-color:#000000;letter-spacing:normal;word-spacing:normal;text-transform:none;writing-mode:lr-tb;direction:ltr;text-orientation:mixed;dominant-baseline:auto;baseline-shift:baseline;text-anchor:start;white-space:normal;shape-padding:0;clip-rule:nonzero;display:inline;overflow:visible;visibility:visible;opacity:1;isolation:auto;mix-blend-mode:normal;color-interpolation:sRGB;color-interpolation-filters:linearRGB;solid-color:#000000;solid-opacity:1;vector-effect:none;fill:#ffffff;fill-opacity:1;fill-rule:nonzero;stroke:none;stroke-width:0.18725736;stroke-linecap:butt;stroke-linejoin:miter;stroke-miterlimit:4;stroke-dasharray:none;stroke-dashoffset:0;stroke-opacity:1;color-rendering:auto;image-rendering:auto;shape-rendering:auto;text-rendering:auto;enable-background:accumulate"
       d="m 63.171715,124.49412 c 0.265987,-0.0844 0.500898,-0.0513 0.701172,0.0586 0.200274,0.10988 0.363568,0.29991 0.46875,0.5293 0.210364,0.45878 0.181226,1.06487 -0.242188,1.48828 -0.125428,0.12543 -0.370428,0.2225 -0.605468,0.25391 -0.235041,0.0314 -0.453951,-0.0125 -0.527344,-0.0859 0.01094,0.0109 0.002,0.005 -0.0039,-0.0117 -0.0059,-0.0165 -0.01264,-0.042 -0.01953,-0.0742 -0.01378,-0.0644 -0.02797,-0.15472 -0.03906,-0.26172 -0.02218,-0.21399 -0.03516,-0.49509 -0.03516,-0.78906 0,-0.45216 0.01602,-0.72366 0.0625,-0.875 0.04648,-0.15133 0.100661,-0.18813 0.240234,-0.23242 z"
       inkscape:connector-curvature="0"
       id="path5337" />
    <path
       style="color:#000000;font-style:normal;font-variant:normal;font-weight:normal;font-stretch:normal;font-size:medium;line-height:normal;font-family:sans-serif;font-variant-ligatures:normal;font-variant-position:normal;font-variant-caps:normal;font-variant-numeric:normal;font-variant-alternates:normal;font-feature-settings:normal;text-indent:0;text-align:start;text-decoration:none;text-decoration-line:none;text-decoration-style:solid;text-decoration-color:#000000;letter-spacing:normal;word-spacing:normal;text-transform:none;writing-mode:lr-tb;direction:ltr;text-orientation:mixed;dominant-baseline:auto;baseline-shift:baseline;text-anchor:start;white-space:normal;shape-padding:0;clip-rule:nonzero;display:inline;overflow:visible;visibility:visible;opacity:1;isolation:auto;mix-blend-mode:normal;color-interpolation:sRGB;color-interpolation-filters:linearRGB;solid-color:#000000;solid-opacity:1;vector-effect:none;fill:#ffffff;fill-opacity:1;fill-rule:nonzero;stroke:none;stroke-width:0.18725736;stroke-linecap:butt;stroke-linejoin:miter;stroke-miterlimit:4;stroke-dasharray:none;stroke-dashoffset:0;stroke-opacity:1;color-rendering:auto;image-rendering:auto;shape-rendering:auto;text-rendering:auto;enable-background:accumulate"
       d="m 103.43148,125.21678 c 0.11912,0.45905 0.16061,1.20608 0.16211,2.39648 10e-4,0.98733 -0.01,1.56697 -0.0586,1.9336 -0.0995,0.9978 -1.08588,0.94325 -1.73216,0.93332 -0.0226,-1.89333 0.0439,-4.25176 0.0136,-5.98743 0.80687,-0.0418 1.40616,-0.048 1.61503,0.72403 z"
       inkscape:connector-curvature="0"
       id="path5335"
       sodipodi:nodetypes="cccccc" />
    <path
       style="color:#000000;font-style:normal;font-variant:normal;font-weight:normal;font-stretch:normal;font-size:medium;line-height:normal;font-family:sans-serif;font-variant-ligatures:normal;font-variant-position:normal;font-variant-caps:normal;font-variant-numeric:normal;font-variant-alternates:normal;font-feature-settings:normal;text-indent:0;text-align:start;text-decoration:none;text-decoration-line:none;text-decoration-style:solid;text-decoration-color:#000000;letter-spacing:normal;word-spacing:normal;text-transform:none;writing-mode:lr-tb;direction:ltr;text-orientation:mixed;dominant-baseline:auto;baseline-shift:baseline;text-anchor:start;white-space:normal;shape-padding:0;clip-rule:nonzero;display:inline;overflow:visible;visibility:visible;opacity:1;isolation:auto;mix-blend-mode:normal;color-interpolation:sRGB;color-interpolation-filters:linearRGB;solid-color:#000000;solid-opacity:1;vector-effect:none;fill-opacity:1;fill-rule:nonzero;stroke:none;stroke-width:0.18725736;stroke-linecap:butt;stroke-linejoin:miter;stroke-miterlimit:4;stroke-dasharray:none;stroke-dashoffset:0;stroke-opacity:1;color-rendering:auto;image-rendering:auto;shape-rendering:auto;text-rendering:auto;enable-background:accumulate"
       d="m 83.185387,125.11717 c -0.440158,1.11519 -0.636876,2.50723 -0.771481,3.58983 0.814474,0.02 0.902718,0.0246 1.531251,0.002 -0.140427,-1.11827 -0.406844,-2.78919 -0.759766,-3.59179 z"
       inkscape:connector-curvature="0"
       id="path5333"
       sodipodi:nodetypes="ccccc" />
    <path
       style="color:#000000;font-style:normal;font-variant:normal;font-weight:normal;font-stretch:normal;font-size:medium;line-height:normal;font-family:sans-serif;font-variant-ligatures:normal;font-variant-position:normal;font-variant-caps:normal;font-variant-numeric:normal;font-variant-alternates:normal;font-feature-settings:normal;text-indent:0;text-align:start;text-decoration:none;text-decoration-line:none;text-decoration-style:solid;text-decoration-color:#000000;letter-spacing:normal;word-spacing:normal;text-transform:none;writing-mode:lr-tb;direction:ltr;text-orientation:mixed;dominant-baseline:auto;baseline-shift:baseline;text-anchor:start;white-space:normal;shape-padding:0;clip-rule:nonzero;display:inline;overflow:visible;visibility:visible;opacity:1;isolation:auto;mix-blend-mode:normal;color-interpolation:sRGB;color-interpolation-filters:linearRGB;solid-color:#000000;solid-opacity:1;vector-effect:none;fill:#ffffff;fill-opacity:1;fill-rule:nonzero;stroke:none;stroke-width:0.18725736;stroke-linecap:butt;stroke-linejoin:miter;stroke-miterlimit:4;stroke-dasharray:none;stroke-dashoffset:0;stroke-opacity:1;color-rendering:auto;image-rendering:auto;shape-rendering:auto;text-rendering:auto;enable-background:accumulate"
       d="m 83.183387,125.30467 c 0.0053,1e-5 0.03454,0.01 0.07813,0.0762 0.04358,0.0663 0.09397,0.17774 0.142578,0.33008 0.09722,0.30467 0.192889,0.77362 0.28125,1.39844 0.09233,0.65288 0.135191,1.046 0.128906,1.28123 -0.0031,0.11762 -0.01724,0.1931 -0.03906,0.24219 -0.02182,0.0491 -0.04905,0.0752 -0.09375,0.10352 -0.311818,0.19747 -0.682024,0.19721 -1,-0.004 -0.04883,-0.0309 -0.07707,-0.0578 -0.09961,-0.10547 -0.02254,-0.0477 -0.03774,-0.12077 -0.04102,-0.23633 -0.0065,-0.23108 0.03854,-0.623 0.134765,-1.28319 0.09102,-0.62456 0.188598,-1.09214 0.28711,-1.39648 0.04926,-0.15217 0.09871,-0.26389 0.142578,-0.33008 0.04387,-0.0662 0.0728,-0.0762 0.07813,-0.0762 z"
       inkscape:connector-curvature="0"
       id="path5331" />
    <path
       style="color:#000000;font-style:normal;font-variant:normal;font-weight:normal;font-stretch:normal;font-size:medium;line-height:normal;font-family:sans-serif;font-variant-ligatures:normal;font-variant-position:normal;font-variant-caps:normal;font-variant-numeric:normal;font-variant-alternates:normal;font-feature-settings:normal;text-indent:0;text-align:start;text-decoration:none;text-decoration-line:none;text-decoration-style:solid;text-decoration-color:#000000;letter-spacing:normal;word-spacing:normal;text-transform:none;writing-mode:lr-tb;direction:ltr;text-orientation:mixed;dominant-baseline:auto;baseline-shift:baseline;text-anchor:start;white-space:normal;shape-padding:0;clip-rule:nonzero;display:inline;overflow:visible;visibility:visible;opacity:1;isolation:auto;mix-blend-mode:normal;color-interpolation:sRGB;color-interpolation-filters:linearRGB;solid-color:#000000;solid-opacity:1;vector-effect:none;fill-opacity:1;fill-rule:nonzero;stroke:none;stroke-width:0.18725736;stroke-linecap:butt;stroke-linejoin:miter;stroke-miterlimit:4;stroke-dasharray:none;stroke-dashoffset:0;stroke-opacity:1;color-rendering:auto;image-rendering:auto;shape-rendering:auto;text-rendering:auto;enable-background:accumulate"
       d="m 60.435454,137.94182 c -0.01996,9.52401 -0.05885,19.71571 -0.05017,27.99339 2.638514,-0.002 4.656387,0.0986 7.167421,0.0986 0.0017,-3.80309 0.02937,-8.00941 0.0491,-11.64108 2.419726,-0.0129 6.348428,-0.0339 8.845505,-0.062 0,-1.80925 0,-3.61849 0,-5.42773 -3.561194,-0.003 -4.987101,-0.0678 -8.712093,-0.10841 0.02005,-1.97558 0.03215,-3.31684 0.07711,-5.17081 3.527681,-0.01 5.708873,0.0108 9.193465,-0.028 v -2.80859 -2.80859 l -8.285156,-0.0488 z"
       inkscape:connector-curvature="0"
       id="path5329"
       sodipodi:nodetypes="ccccccccccccc" />
    <path
       style="color:#000000;font-style:normal;font-variant:normal;font-weight:normal;font-stretch:normal;font-size:medium;line-height:normal;font-family:sans-serif;font-variant-ligatures:normal;font-variant-position:normal;font-variant-caps:normal;font-variant-numeric:normal;font-variant-alternates:normal;font-feature-settings:normal;text-indent:0;text-align:start;text-decoration:none;text-decoration-line:none;text-decoration-style:solid;text-decoration-color:#000000;letter-spacing:normal;word-spacing:normal;text-transform:none;writing-mode:lr-tb;direction:ltr;text-orientation:mixed;dominant-baseline:auto;baseline-shift:baseline;text-anchor:start;white-space:normal;shape-padding:0;clip-rule:nonzero;display:inline;overflow:visible;visibility:visible;opacity:1;isolation:auto;mix-blend-mode:normal;color-interpolation:sRGB;color-interpolation-filters:linearRGB;solid-color:#000000;solid-opacity:1;vector-effect:none;fill-opacity:1;fill-rule:nonzero;stroke:none;stroke-width:0.18725736;stroke-linecap:butt;stroke-linejoin:miter;stroke-miterlimit:4;stroke-dasharray:none;stroke-dashoffset:0;stroke-opacity:1;color-rendering:auto;image-rendering:auto;shape-rendering:auto;text-rendering:auto;enable-background:accumulate"
       d="m 84.40409,138.07244 c 3.794271,0 7.588541,0 11.382812,0 1.101767,6.51787 1.685243,9.11331 3.591797,16.29092 1.680451,-6.96696 2.531241,-10.84614 3.619141,-16.29103 3.78906,0 7.57812,0 11.36718,0 v 13.85742 13.85547 h -3.55859 -3.55859 c 0.0324,-9.70886 -0.072,-10.62522 -0.3808,-20.51563 -2.20264,8.89455 -2.85321,11.96231 -4.80268,20.35538 -2.254225,0.0224 -2.930277,0.0446 -5.398431,0.0233 -1.816611,-8.65074 -2.674,-12.4216 -4.527346,-20.24023 -0.44528,8.57337 -0.502238,15.29139 -0.525394,20.28517 -3.78464,0.005 -4.383674,0.001 -7.0625,-0.002 -0.01296,-0.002 -0.01969,-0.002 -0.0293,-0.004 -7.88e-4,-0.008 -0.0011,-0.0118 -0.002,-0.0215 -0.175134,-9.4373 -0.115258,-18.02282 -0.115299,-27.59334 z"
       inkscape:connector-curvature="0"
       id="path5321"
       sodipodi:nodetypes="cccccccccccccccccc" />
    <path
       style="color:#000000;font-style:normal;font-variant:normal;font-weight:normal;font-stretch:normal;font-size:medium;line-height:normal;font-family:sans-serif;font-variant-ligatures:normal;font-variant-position:normal;font-variant-caps:normal;font-variant-numeric:normal;font-variant-alternates:normal;font-feature-settings:normal;text-indent:0;text-align:start;text-decoration:none;text-decoration-line:none;text-decoration-style:solid;text-decoration-color:#000000;letter-spacing:normal;word-spacing:normal;text-transform:none;writing-mode:lr-tb;direction:ltr;text-orientation:mixed;dominant-baseline:auto;baseline-shift:baseline;text-anchor:start;white-space:normal;shape-padding:0;clip-rule:nonzero;display:inline;overflow:visible;visibility:visible;opacity:1;isolation:auto;mix-blend-mode:normal;color-interpolation:sRGB;color-interpolation-filters:linearRGB;solid-color:#000000;solid-opacity:1;vector-effect:none;fill-opacity:1;fill-rule:nonzero;stroke:none;stroke-width:0.18725736;stroke-linecap:butt;stroke-linejoin:miter;stroke-miterlimit:4;stroke-dasharray:none;stroke-dashoffset:0;stroke-opacity:1;color-rendering:auto;image-rendering:auto;shape-rendering:auto;text-rendering:auto;enable-background:accumulate"
       d="m 122.22831,138.07244 c 4.76539,0.0158 7.95942,0.0288 12.28125,0.0566 1.81645,0.0388 3.68371,0.7981 4.84179,2.06054 1.31265,1.84563 1.6583,4.24838 1.40821,6.34571 -0.16468,1.29423 -0.43633,2.24527 -0.88477,2.97851 -1.17452,1.09805 -1.9224,1.72119 -3.17187,2.59567 1.09375,0.87414 2.69398,1.36897 3.29102,2.55664 0.68461,1.67943 0.55577,3.68104 0.60156,5.13281 0.064,2.04011 0.14161,3.35163 0.2793,4.20703 0.25832,0.77006 0.77694,1.46562 0.82685,1.61591 -0.0899,0.0365 -0.24486,0.05 -0.34624,0.0697 -2.66599,-0.0667 -3.85405,0.13316 -6.6582,-0.0469 -0.36538,-1.60286 -0.78196,-4.12586 -0.83594,-5.67383 -0.12713,-1.90768 0.31113,-3.81677 -0.82813,-4.93554 -0.71212,-0.83448 -3.01764,-0.42311 -3.82812,-0.38863 -0.2068,4.81403 -0.30321,7.7097 -0.3281,11.04688 l -3.32422,0.0508 -3.32421,0.0488 v -13.85938 z"
       inkscape:connector-curvature="0"
       id="path5319"
       sodipodi:nodetypes="cccccccccccccccccccc" />
    <path
       style="color:#000000;font-style:normal;font-variant:normal;font-weight:normal;font-stretch:normal;font-size:medium;line-height:normal;font-family:sans-serif;font-variant-ligatures:normal;font-variant-position:normal;font-variant-caps:normal;font-variant-numeric:normal;font-variant-alternates:normal;font-feature-settings:normal;text-indent:0;text-align:start;text-decoration:none;text-decoration-line:none;text-decoration-style:solid;text-decoration-color:#000000;letter-spacing:normal;word-spacing:normal;text-transform:none;writing-mode:lr-tb;direction:ltr;text-orientation:mixed;dominant-baseline:auto;baseline-shift:baseline;text-anchor:start;white-space:normal;shape-padding:0;clip-rule:nonzero;display:inline;overflow:visible;visibility:visible;opacity:1;isolation:auto;mix-blend-mode:normal;color-interpolation:sRGB;color-interpolation-filters:linearRGB;solid-color:#000000;solid-opacity:1;vector-effect:none;fill-opacity:1;fill-rule:nonzero;stroke:none;stroke-width:0.18725736;stroke-linecap:butt;stroke-linejoin:miter;stroke-miterlimit:4;stroke-dasharray:none;stroke-dashoffset:0;stroke-opacity:1;color-rendering:auto;image-rendering:auto;shape-rendering:auto;text-rendering:auto;enable-background:accumulate"
       d="m 129.0662,142.84587 -0.0527,3.34571 c -0.0189,1.19575 -0.0174,2.02838 0.0117,2.59179 0.0146,0.28171 0.0351,0.49518 0.0645,0.65625 0.0293,0.16108 0.0632,0.27084 0.12696,0.34766 0.11603,0.13981 0.32605,0.19319 0.58984,0.22266 0.2638,0.0295 0.58659,0.0243 0.92383,-0.01 0.61741,-0.0624 1.24527,-0.24075 1.69336,-0.47656 l -0.006,0.0566 0.16211,-0.10156 c 0.92898,-0.57414 1.44568,-1.77052 1.44531,-3.27344 -3.7e-4,-1.39005 -0.38431,-2.33769 -1.21289,-2.94531 -0.21869,-0.16038 -0.44023,-0.26443 -0.75781,-0.32422 -0.31758,-0.0598 -0.7302,-0.0793 -1.35547,-0.082 z"
       inkscape:connector-curvature="0"
       id="path5317" />
    <path
       style="color:#000000;font-style:normal;font-variant:normal;font-weight:normal;font-stretch:normal;font-size:medium;line-height:normal;font-family:sans-serif;font-variant-ligatures:normal;font-variant-position:normal;font-variant-caps:normal;font-variant-numeric:normal;font-variant-alternates:normal;font-feature-settings:normal;text-indent:0;text-align:start;text-decoration:none;text-decoration-line:none;text-decoration-style:solid;text-decoration-color:#000000;letter-spacing:normal;word-spacing:normal;text-transform:none;writing-mode:lr-tb;direction:ltr;text-orientation:mixed;dominant-baseline:auto;baseline-shift:baseline;text-anchor:start;white-space:normal;shape-padding:0;clip-rule:nonzero;display:inline;overflow:visible;visibility:visible;opacity:1;isolation:auto;mix-blend-mode:normal;color-interpolation:sRGB;color-interpolation-filters:linearRGB;solid-color:#000000;solid-opacity:1;vector-effect:none;fill:#ffffff;fill-opacity:1;fill-rule:nonzero;stroke:none;stroke-width:0.18725736;stroke-linecap:butt;stroke-linejoin:miter;stroke-miterlimit:4;stroke-dasharray:none;stroke-dashoffset:0;stroke-opacity:1;color-rendering:auto;image-rendering:auto;shape-rendering:auto;text-rendering:auto;enable-background:accumulate"
       d="m 129.24979,143.03533 1.44727,0.006 c 0.68478,0.011 1.47786,-0.0129 2.00585,0.36912 0.77673,0.56959 1.13636,1.63743 1.13672,2.9937 3.6e-4,1.45996 -0.5013,2.38735 -1.35742,2.91645 -0.3937,0.24333 -1.11702,0.42799 -1.77148,0.49414 -0.48315,0.0488 -0.99129,0.0492 -1.54547,0.0204 0.0516,-2.32373 0.0484,-4.45732 0.0845,-6.79981 z"
       inkscape:connector-curvature="0"
       id="path4582"
       sodipodi:nodetypes="cccccccc" />
  </g>
</svg>
